<mxfile host="app.diagrams.net" modified="2023-04-18T01:14:06.205Z" agent="Mozilla/5.0 (Macintosh; Intel Mac OS X 10_15_7) AppleWebKit/537.36 (KHTML, like Gecko) Chrome/112.0.0.0 Safari/537.36" etag="YSpclTZF5T2xH8fPO0q-" version="21.1.5" type="device">
  <diagram name="Page-1" id="LU1RMtWBTlNRNGXYy_Js">
    <mxGraphModel dx="948" dy="634" grid="0" gridSize="10" guides="1" tooltips="1" connect="1" arrows="1" fold="1" page="1" pageScale="1" pageWidth="1200" pageHeight="1070" background="#FFFFFF" math="0" shadow="0">
      <root>
        <mxCell id="0" />
        <mxCell id="1" parent="0" />
        <mxCell id="QpNmT4B13l3Vr6nJiaZD-1" value="Scenario 2 - Process flow&amp;nbsp;" style="swimlane;html=1;childLayout=stackLayout;resizeParent=1;resizeParentMax=0;horizontal=0;startSize=20;horizontalStack=0;whiteSpace=wrap;fillColor=#bac8d3;strokeColor=#23445d;" parent="1" vertex="1">
          <mxGeometry x="25" y="54" width="1150" height="960" as="geometry" />
        </mxCell>
        <mxCell id="QpNmT4B13l3Vr6nJiaZD-2" value="Client" style="swimlane;html=1;startSize=20;horizontal=0;fillColor=#f5f5f5;fontColor=#333333;strokeColor=#666666;" parent="QpNmT4B13l3Vr6nJiaZD-1" vertex="1">
          <mxGeometry x="20" width="1130" height="150" as="geometry" />
        </mxCell>
        <mxCell id="QpNmT4B13l3Vr6nJiaZD-7" style="edgeStyle=orthogonalEdgeStyle;rounded=0;orthogonalLoop=1;jettySize=auto;html=1;" parent="QpNmT4B13l3Vr6nJiaZD-2" source="QpNmT4B13l3Vr6nJiaZD-5" target="QpNmT4B13l3Vr6nJiaZD-6" edge="1">
          <mxGeometry relative="1" as="geometry" />
        </mxCell>
        <mxCell id="QpNmT4B13l3Vr6nJiaZD-5" value="" style="points=[[0.145,0.145,0],[0.5,0,0],[0.855,0.145,0],[1,0.5,0],[0.855,0.855,0],[0.5,1,0],[0.145,0.855,0],[0,0.5,0]];shape=mxgraph.bpmn.event;html=1;verticalLabelPosition=bottom;labelBackgroundColor=#ffffff;verticalAlign=top;align=center;perimeter=ellipsePerimeter;outlineConnect=0;aspect=fixed;outline=standard;symbol=general;fillColor=#dae8fc;strokeColor=#6c8ebf;" parent="QpNmT4B13l3Vr6nJiaZD-2" vertex="1">
          <mxGeometry x="74.5" y="10" width="51" height="50" as="geometry" />
        </mxCell>
        <mxCell id="m_rBV7yZO_tmM0qjdcom-71" style="edgeStyle=orthogonalEdgeStyle;rounded=0;orthogonalLoop=1;jettySize=auto;html=1;entryX=0;entryY=0.5;entryDx=0;entryDy=0;entryPerimeter=0;" parent="QpNmT4B13l3Vr6nJiaZD-2" source="QpNmT4B13l3Vr6nJiaZD-6" target="m_rBV7yZO_tmM0qjdcom-65" edge="1">
          <mxGeometry relative="1" as="geometry" />
        </mxCell>
        <mxCell id="QpNmT4B13l3Vr6nJiaZD-6" value="Submits application onsite&amp;nbsp;" style="points=[[0.25,0,0],[0.5,0,0],[0.75,0,0],[1,0.25,0],[1,0.5,0],[1,0.75,0],[0.75,1,0],[0.5,1,0],[0.25,1,0],[0,0.75,0],[0,0.5,0],[0,0.25,0]];shape=mxgraph.bpmn.task;whiteSpace=wrap;rectStyle=rounded;size=10;html=1;container=1;expand=0;collapsible=0;taskMarker=abstract;fillColor=#d5e8d4;strokeColor=#82b366;fontColor=#1A3300;" parent="QpNmT4B13l3Vr6nJiaZD-2" vertex="1">
          <mxGeometry x="37.5" y="84" width="125" height="50" as="geometry" />
        </mxCell>
        <mxCell id="AgpF8Hm68eTMTZU38w87-2" value="" style="shape=image;html=1;verticalAlign=top;verticalLabelPosition=bottom;labelBackgroundColor=#ffffff;imageAspect=0;aspect=fixed;image=https://cdn0.iconfinder.com/data/icons/phosphor-regular-vol-3/256/hand-palm-128.png;rotation=90;" parent="QpNmT4B13l3Vr6nJiaZD-6" vertex="1">
          <mxGeometry x="2.5" y="2" width="14" height="14" as="geometry" />
        </mxCell>
        <mxCell id="m_rBV7yZO_tmM0qjdcom-121" style="edgeStyle=orthogonalEdgeStyle;rounded=0;orthogonalLoop=1;jettySize=auto;html=1;entryX=0;entryY=0.5;entryDx=0;entryDy=0;entryPerimeter=0;" parent="QpNmT4B13l3Vr6nJiaZD-2" source="m_rBV7yZO_tmM0qjdcom-65" target="m_rBV7yZO_tmM0qjdcom-102" edge="1">
          <mxGeometry relative="1" as="geometry" />
        </mxCell>
        <mxCell id="m_rBV7yZO_tmM0qjdcom-65" value="Provides Beneficiary Details&amp;nbsp;" style="points=[[0.25,0,0],[0.5,0,0],[0.75,0,0],[1,0.25,0],[1,0.5,0],[1,0.75,0],[0.75,1,0],[0.5,1,0],[0.25,1,0],[0,0.75,0],[0,0.5,0],[0,0.25,0]];shape=mxgraph.bpmn.task;whiteSpace=wrap;rectStyle=rounded;size=10;html=1;container=1;expand=0;collapsible=0;taskMarker=abstract;fillColor=#d5e8d4;strokeColor=#82b366;fontColor=#1A3300;" parent="QpNmT4B13l3Vr6nJiaZD-2" vertex="1">
          <mxGeometry x="365" y="84" width="120" height="50" as="geometry" />
        </mxCell>
        <mxCell id="AgpF8Hm68eTMTZU38w87-3" value="" style="shape=image;html=1;verticalAlign=top;verticalLabelPosition=bottom;labelBackgroundColor=#ffffff;imageAspect=0;aspect=fixed;image=https://cdn0.iconfinder.com/data/icons/phosphor-regular-vol-3/256/hand-palm-128.png;rotation=90;" parent="m_rBV7yZO_tmM0qjdcom-65" vertex="1">
          <mxGeometry x="3" y="2" width="14" height="14" as="geometry" />
        </mxCell>
        <mxCell id="m_rBV7yZO_tmM0qjdcom-122" style="edgeStyle=orthogonalEdgeStyle;rounded=0;orthogonalLoop=1;jettySize=auto;html=1;entryX=0;entryY=0.5;entryDx=0;entryDy=0;entryPerimeter=0;exitX=0.5;exitY=0;exitDx=0;exitDy=0;exitPerimeter=0;" parent="QpNmT4B13l3Vr6nJiaZD-2" source="m_rBV7yZO_tmM0qjdcom-102" target="m_rBV7yZO_tmM0qjdcom-119" edge="1">
          <mxGeometry relative="1" as="geometry">
            <mxPoint x="740" y="69" as="sourcePoint" />
          </mxGeometry>
        </mxCell>
        <mxCell id="m_rBV7yZO_tmM0qjdcom-102" value="Submits documents" style="points=[[0.25,0,0],[0.5,0,0],[0.75,0,0],[1,0.25,0],[1,0.5,0],[1,0.75,0],[0.75,1,0],[0.5,1,0],[0.25,1,0],[0,0.75,0],[0,0.5,0],[0,0.25,0]];shape=mxgraph.bpmn.task;whiteSpace=wrap;rectStyle=rounded;size=10;html=1;container=1;expand=0;collapsible=0;taskMarker=abstract;fillColor=#d5e8d4;strokeColor=#82b366;fontColor=#1A3300;" parent="QpNmT4B13l3Vr6nJiaZD-2" vertex="1">
          <mxGeometry x="690" y="84" width="120" height="50" as="geometry" />
        </mxCell>
        <mxCell id="AgpF8Hm68eTMTZU38w87-4" value="" style="shape=image;html=1;verticalAlign=top;verticalLabelPosition=bottom;labelBackgroundColor=#ffffff;imageAspect=0;aspect=fixed;image=https://cdn0.iconfinder.com/data/icons/phosphor-regular-vol-3/256/hand-palm-128.png;rotation=90;" parent="m_rBV7yZO_tmM0qjdcom-102" vertex="1">
          <mxGeometry x="3" y="2" width="14" height="14" as="geometry" />
        </mxCell>
        <mxCell id="m_rBV7yZO_tmM0qjdcom-120" style="edgeStyle=orthogonalEdgeStyle;rounded=0;orthogonalLoop=1;jettySize=auto;html=1;" parent="QpNmT4B13l3Vr6nJiaZD-2" source="m_rBV7yZO_tmM0qjdcom-117" target="m_rBV7yZO_tmM0qjdcom-119" edge="1">
          <mxGeometry relative="1" as="geometry" />
        </mxCell>
        <mxCell id="m_rBV7yZO_tmM0qjdcom-117" value="" style="points=[[0.145,0.145,0],[0.5,0,0],[0.855,0.145,0],[1,0.5,0],[0.855,0.855,0],[0.5,1,0],[0.145,0.855,0],[0,0.5,0]];shape=mxgraph.bpmn.event;html=1;verticalLabelPosition=bottom;labelBackgroundColor=#ffffff;verticalAlign=top;align=center;perimeter=ellipsePerimeter;outlineConnect=0;aspect=fixed;outline=end;symbol=message;fillColor=#fad7ac;strokeColor=#b46504;" parent="QpNmT4B13l3Vr6nJiaZD-2" vertex="1">
          <mxGeometry x="850" y="79" width="50" height="50" as="geometry" />
        </mxCell>
        <mxCell id="m_rBV7yZO_tmM0qjdcom-124" style="edgeStyle=orthogonalEdgeStyle;rounded=0;orthogonalLoop=1;jettySize=auto;html=1;exitX=1;exitY=0.5;exitDx=0;exitDy=0;exitPerimeter=0;entryX=0.25;entryY=0;entryDx=0;entryDy=0;entryPerimeter=0;" parent="QpNmT4B13l3Vr6nJiaZD-2" source="m_rBV7yZO_tmM0qjdcom-119" target="m_rBV7yZO_tmM0qjdcom-123" edge="1">
          <mxGeometry relative="1" as="geometry">
            <Array as="points">
              <mxPoint x="952" y="35" />
            </Array>
          </mxGeometry>
        </mxCell>
        <mxCell id="m_rBV7yZO_tmM0qjdcom-119" value="Receives the voucher" style="points=[[0.25,0,0],[0.5,0,0],[0.75,0,0],[1,0.25,0],[1,0.5,0],[1,0.75,0],[0.75,1,0],[0.5,1,0],[0.25,1,0],[0,0.75,0],[0,0.5,0],[0,0.25,0]];shape=mxgraph.bpmn.task;whiteSpace=wrap;rectStyle=rounded;size=10;html=1;container=1;expand=0;collapsible=0;taskMarker=abstract;fillColor=#d5e8d4;strokeColor=#82b366;fontColor=#1A3300;" parent="QpNmT4B13l3Vr6nJiaZD-2" vertex="1">
          <mxGeometry x="815" y="15" width="120" height="40" as="geometry" />
        </mxCell>
        <mxCell id="AgpF8Hm68eTMTZU38w87-5" value="" style="shape=image;html=1;verticalAlign=top;verticalLabelPosition=bottom;labelBackgroundColor=#ffffff;imageAspect=0;aspect=fixed;image=https://cdn0.iconfinder.com/data/icons/phosphor-regular-vol-3/256/hand-palm-128.png;rotation=90;" parent="m_rBV7yZO_tmM0qjdcom-119" vertex="1">
          <mxGeometry x="3" y="1" width="14" height="14" as="geometry" />
        </mxCell>
        <mxCell id="m_rBV7yZO_tmM0qjdcom-126" style="edgeStyle=orthogonalEdgeStyle;rounded=0;orthogonalLoop=1;jettySize=auto;html=1;exitX=1;exitY=0.5;exitDx=0;exitDy=0;exitPerimeter=0;entryX=0;entryY=0.5;entryDx=0;entryDy=0;entryPerimeter=0;" parent="QpNmT4B13l3Vr6nJiaZD-2" source="m_rBV7yZO_tmM0qjdcom-123" target="m_rBV7yZO_tmM0qjdcom-125" edge="1">
          <mxGeometry relative="1" as="geometry">
            <mxPoint x="1060" y="89" as="targetPoint" />
            <Array as="points">
              <mxPoint x="1060" y="109" />
              <mxPoint x="1060" y="109" />
            </Array>
          </mxGeometry>
        </mxCell>
        <mxCell id="m_rBV7yZO_tmM0qjdcom-207" style="edgeStyle=orthogonalEdgeStyle;rounded=0;orthogonalLoop=1;jettySize=auto;html=1;exitX=0.75;exitY=0;exitDx=0;exitDy=0;exitPerimeter=0;" parent="QpNmT4B13l3Vr6nJiaZD-2" source="m_rBV7yZO_tmM0qjdcom-123" target="m_rBV7yZO_tmM0qjdcom-206" edge="1">
          <mxGeometry relative="1" as="geometry" />
        </mxCell>
        <mxCell id="m_rBV7yZO_tmM0qjdcom-123" value="Presents the voucher at medical shop" style="points=[[0.25,0,0],[0.5,0,0],[0.75,0,0],[1,0.25,0],[1,0.5,0],[1,0.75,0],[0.75,1,0],[0.5,1,0],[0.25,1,0],[0,0.75,0],[0,0.5,0],[0,0.25,0]];shape=mxgraph.bpmn.task;whiteSpace=wrap;rectStyle=rounded;size=10;html=1;container=1;expand=0;collapsible=0;taskMarker=abstract;fillColor=#d5e8d4;strokeColor=#82b366;fontColor=#1A3300;" parent="QpNmT4B13l3Vr6nJiaZD-2" vertex="1">
          <mxGeometry x="922" y="82" width="120" height="55" as="geometry" />
        </mxCell>
        <mxCell id="m_rBV7yZO_tmM0qjdcom-125" value="" style="points=[[0.145,0.145,0],[0.5,0,0],[0.855,0.145,0],[1,0.5,0],[0.855,0.855,0],[0.5,1,0],[0.145,0.855,0],[0,0.5,0]];shape=mxgraph.bpmn.event;html=1;verticalLabelPosition=bottom;labelBackgroundColor=#ffffff;verticalAlign=top;align=center;perimeter=ellipsePerimeter;outlineConnect=0;aspect=fixed;outline=standard;symbol=message;fillColor=#fad7ac;strokeColor=#b46504;" parent="QpNmT4B13l3Vr6nJiaZD-2" vertex="1">
          <mxGeometry x="1069" y="84" width="50" height="50" as="geometry" />
        </mxCell>
        <mxCell id="m_rBV7yZO_tmM0qjdcom-206" value="" style="points=[[0.145,0.145,0],[0.5,0,0],[0.855,0.145,0],[1,0.5,0],[0.855,0.855,0],[0.5,1,0],[0.145,0.855,0],[0,0.5,0]];shape=mxgraph.bpmn.event;html=1;verticalLabelPosition=bottom;labelBackgroundColor=#ffffff;verticalAlign=top;align=center;perimeter=ellipsePerimeter;outlineConnect=0;aspect=fixed;outline=end;symbol=terminate;fillColor=#dae8fc;strokeColor=#6c8ebf;" parent="QpNmT4B13l3Vr6nJiaZD-2" vertex="1">
          <mxGeometry x="987" y="15" width="50" height="50" as="geometry" />
        </mxCell>
        <mxCell id="QpNmT4B13l3Vr6nJiaZD-3" value="SWO" style="swimlane;html=1;startSize=20;horizontal=0;fillColor=#f5f5f5;fontColor=#333333;strokeColor=#666666;" parent="QpNmT4B13l3Vr6nJiaZD-1" vertex="1">
          <mxGeometry x="20" y="150" width="1130" height="350" as="geometry" />
        </mxCell>
        <mxCell id="m_rBV7yZO_tmM0qjdcom-9" style="edgeStyle=orthogonalEdgeStyle;rounded=0;orthogonalLoop=1;jettySize=auto;html=1;" parent="QpNmT4B13l3Vr6nJiaZD-3" source="m_rBV7yZO_tmM0qjdcom-5" target="m_rBV7yZO_tmM0qjdcom-7" edge="1">
          <mxGeometry relative="1" as="geometry" />
        </mxCell>
        <mxCell id="m_rBV7yZO_tmM0qjdcom-5" value="Receives the application" style="points=[[0.25,0,0],[0.5,0,0],[0.75,0,0],[1,0.25,0],[1,0.5,0],[1,0.75,0],[0.75,1,0],[0.5,1,0],[0.25,1,0],[0,0.75,0],[0,0.5,0],[0,0.25,0]];shape=mxgraph.bpmn.task;whiteSpace=wrap;rectStyle=rounded;size=10;html=1;container=1;expand=0;collapsible=0;taskMarker=abstract;fillColor=#d5e8d4;strokeColor=#82b366;fontColor=#1A3300;" parent="QpNmT4B13l3Vr6nJiaZD-3" vertex="1">
          <mxGeometry x="40" y="20" width="120" height="50" as="geometry" />
        </mxCell>
        <mxCell id="m_rBV7yZO_tmM0qjdcom-10" style="edgeStyle=orthogonalEdgeStyle;rounded=0;orthogonalLoop=1;jettySize=auto;html=1;entryX=0.5;entryY=0;entryDx=0;entryDy=0;entryPerimeter=0;exitX=0.5;exitY=1;exitDx=0;exitDy=0;exitPerimeter=0;" parent="QpNmT4B13l3Vr6nJiaZD-3" source="m_rBV7yZO_tmM0qjdcom-7" target="m_rBV7yZO_tmM0qjdcom-8" edge="1">
          <mxGeometry relative="1" as="geometry">
            <mxPoint x="55" y="139" as="sourcePoint" />
          </mxGeometry>
        </mxCell>
        <mxCell id="m_rBV7yZO_tmM0qjdcom-7" value="Searches the client in Registry" style="points=[[0.25,0,0],[0.5,0,0],[0.75,0,0],[1,0.25,0],[1,0.5,0],[1,0.75,0],[0.75,1,0],[0.5,1,0],[0.25,1,0],[0,0.75,0],[0,0.5,0],[0,0.25,0]];shape=mxgraph.bpmn.task;whiteSpace=wrap;rectStyle=rounded;size=10;html=1;container=1;expand=0;collapsible=0;taskMarker=abstract;fillColor=#d5e8d4;strokeColor=#82b366;fontColor=#1A3300;" parent="QpNmT4B13l3Vr6nJiaZD-3" vertex="1">
          <mxGeometry x="200" y="20" width="120" height="50" as="geometry" />
        </mxCell>
        <mxCell id="m_rBV7yZO_tmM0qjdcom-13" style="edgeStyle=orthogonalEdgeStyle;rounded=0;orthogonalLoop=1;jettySize=auto;html=1;exitX=1;exitY=0.5;exitDx=0;exitDy=0;exitPerimeter=0;entryX=0.75;entryY=0;entryDx=0;entryDy=0;entryPerimeter=0;" parent="QpNmT4B13l3Vr6nJiaZD-3" source="m_rBV7yZO_tmM0qjdcom-8" target="m_rBV7yZO_tmM0qjdcom-12" edge="1">
          <mxGeometry relative="1" as="geometry" />
        </mxCell>
        <mxCell id="m_rBV7yZO_tmM0qjdcom-14" style="edgeStyle=orthogonalEdgeStyle;rounded=0;orthogonalLoop=1;jettySize=auto;html=1;exitX=0;exitY=0.5;exitDx=0;exitDy=0;exitPerimeter=0;" parent="QpNmT4B13l3Vr6nJiaZD-3" source="m_rBV7yZO_tmM0qjdcom-8" target="m_rBV7yZO_tmM0qjdcom-11" edge="1">
          <mxGeometry relative="1" as="geometry" />
        </mxCell>
        <mxCell id="m_rBV7yZO_tmM0qjdcom-8" value="" style="points=[[0.25,0.25,0],[0.5,0,0],[0.75,0.25,0],[1,0.5,0],[0.75,0.75,0],[0.5,1,0],[0.25,0.75,0],[0,0.5,0]];shape=mxgraph.bpmn.gateway2;html=1;verticalLabelPosition=bottom;labelBackgroundColor=#ffffff;verticalAlign=top;align=center;perimeter=rhombusPerimeter;outlineConnect=0;outline=none;symbol=none;fillColor=#fff2cc;strokeColor=#d6b656;" parent="QpNmT4B13l3Vr6nJiaZD-3" vertex="1">
          <mxGeometry x="235" y="89" width="50" height="50" as="geometry" />
        </mxCell>
        <mxCell id="m_rBV7yZO_tmM0qjdcom-20" style="edgeStyle=orthogonalEdgeStyle;rounded=0;orthogonalLoop=1;jettySize=auto;html=1;entryX=0;entryY=0.5;entryDx=0;entryDy=0;entryPerimeter=0;exitX=0.5;exitY=1;exitDx=0;exitDy=0;exitPerimeter=0;" parent="QpNmT4B13l3Vr6nJiaZD-3" source="m_rBV7yZO_tmM0qjdcom-11" target="m_rBV7yZO_tmM0qjdcom-18" edge="1">
          <mxGeometry relative="1" as="geometry" />
        </mxCell>
        <mxCell id="m_rBV7yZO_tmM0qjdcom-11" value="Creates fresh entry in registry" style="points=[[0.25,0,0],[0.5,0,0],[0.75,0,0],[1,0.25,0],[1,0.5,0],[1,0.75,0],[0.75,1,0],[0.5,1,0],[0.25,1,0],[0,0.75,0],[0,0.5,0],[0,0.25,0]];shape=mxgraph.bpmn.task;whiteSpace=wrap;rectStyle=rounded;size=10;html=1;container=1;expand=0;collapsible=0;taskMarker=abstract;fillColor=#d5e8d4;strokeColor=#82b366;fontColor=#1A3300;" parent="QpNmT4B13l3Vr6nJiaZD-3" vertex="1">
          <mxGeometry x="115" y="139" width="120" height="50" as="geometry" />
        </mxCell>
        <mxCell id="m_rBV7yZO_tmM0qjdcom-19" style="edgeStyle=orthogonalEdgeStyle;rounded=0;orthogonalLoop=1;jettySize=auto;html=1;entryX=0.75;entryY=0;entryDx=0;entryDy=0;entryPerimeter=0;exitX=0.75;exitY=1;exitDx=0;exitDy=0;exitPerimeter=0;" parent="QpNmT4B13l3Vr6nJiaZD-3" source="m_rBV7yZO_tmM0qjdcom-12" target="m_rBV7yZO_tmM0qjdcom-18" edge="1">
          <mxGeometry relative="1" as="geometry" />
        </mxCell>
        <mxCell id="m_rBV7yZO_tmM0qjdcom-12" value="Selects the record" style="points=[[0.25,0,0],[0.5,0,0],[0.75,0,0],[1,0.25,0],[1,0.5,0],[1,0.75,0],[0.75,1,0],[0.5,1,0],[0.25,1,0],[0,0.75,0],[0,0.5,0],[0,0.25,0]];shape=mxgraph.bpmn.task;whiteSpace=wrap;rectStyle=rounded;size=10;html=1;container=1;expand=0;collapsible=0;taskMarker=abstract;fillColor=#d5e8d4;strokeColor=#82b366;fontColor=#1A3300;" parent="QpNmT4B13l3Vr6nJiaZD-3" vertex="1">
          <mxGeometry x="220" y="197" width="120" height="50" as="geometry" />
        </mxCell>
        <mxCell id="m_rBV7yZO_tmM0qjdcom-15" value="Record found" style="text;html=1;strokeColor=none;fillColor=none;align=center;verticalAlign=middle;whiteSpace=wrap;rounded=0;" parent="QpNmT4B13l3Vr6nJiaZD-3" vertex="1">
          <mxGeometry x="245.5" y="178" width="68" height="10" as="geometry" />
        </mxCell>
        <mxCell id="m_rBV7yZO_tmM0qjdcom-70" style="edgeStyle=orthogonalEdgeStyle;rounded=0;orthogonalLoop=1;jettySize=auto;html=1;entryX=0;entryY=0.5;entryDx=0;entryDy=0;entryPerimeter=0;exitX=1;exitY=0.5;exitDx=0;exitDy=0;exitPerimeter=0;" parent="QpNmT4B13l3Vr6nJiaZD-3" source="m_rBV7yZO_tmM0qjdcom-18" target="m_rBV7yZO_tmM0qjdcom-63" edge="1">
          <mxGeometry relative="1" as="geometry">
            <Array as="points">
              <mxPoint x="350" y="304" />
              <mxPoint x="350" y="45" />
            </Array>
          </mxGeometry>
        </mxCell>
        <mxCell id="m_rBV7yZO_tmM0qjdcom-18" value="Authenticates client using OTP" style="points=[[0.25,0,0],[0.5,0,0],[0.75,0,0],[1,0.25,0],[1,0.5,0],[1,0.75,0],[0.75,1,0],[0.5,1,0],[0.25,1,0],[0,0.75,0],[0,0.5,0],[0,0.25,0]];shape=mxgraph.bpmn.task;whiteSpace=wrap;rectStyle=rounded;size=10;html=1;container=1;expand=0;collapsible=0;taskMarker=abstract;fillColor=#d5e8d4;strokeColor=#82b366;fontColor=#1A3300;" parent="QpNmT4B13l3Vr6nJiaZD-3" vertex="1">
          <mxGeometry x="219.5" y="279" width="120" height="50" as="geometry" />
        </mxCell>
        <mxCell id="m_rBV7yZO_tmM0qjdcom-78" value="" style="edgeStyle=orthogonalEdgeStyle;rounded=0;orthogonalLoop=1;jettySize=auto;html=1;" parent="QpNmT4B13l3Vr6nJiaZD-3" source="m_rBV7yZO_tmM0qjdcom-63" target="m_rBV7yZO_tmM0qjdcom-77" edge="1">
          <mxGeometry relative="1" as="geometry" />
        </mxCell>
        <mxCell id="m_rBV7yZO_tmM0qjdcom-63" value="Searches for beneficiary &lt;br&gt;in Registry" style="points=[[0.25,0,0],[0.5,0,0],[0.75,0,0],[1,0.25,0],[1,0.5,0],[1,0.75,0],[0.75,1,0],[0.5,1,0],[0.25,1,0],[0,0.75,0],[0,0.5,0],[0,0.25,0]];shape=mxgraph.bpmn.task;whiteSpace=wrap;rectStyle=rounded;size=10;html=1;container=1;expand=0;collapsible=0;taskMarker=abstract;fillColor=#d5e8d4;strokeColor=#82b366;fontColor=#1A3300;" parent="QpNmT4B13l3Vr6nJiaZD-3" vertex="1">
          <mxGeometry x="365" y="20" width="120" height="50" as="geometry" />
        </mxCell>
        <mxCell id="m_rBV7yZO_tmM0qjdcom-16" value="Record not found" style="text;html=1;strokeColor=none;fillColor=none;align=center;verticalAlign=middle;whiteSpace=wrap;rounded=0;" parent="QpNmT4B13l3Vr6nJiaZD-3" vertex="1">
          <mxGeometry x="146" y="95" width="85" height="14" as="geometry" />
        </mxCell>
        <mxCell id="m_rBV7yZO_tmM0qjdcom-84" style="edgeStyle=orthogonalEdgeStyle;rounded=0;orthogonalLoop=1;jettySize=auto;html=1;" parent="QpNmT4B13l3Vr6nJiaZD-3" source="m_rBV7yZO_tmM0qjdcom-77" target="m_rBV7yZO_tmM0qjdcom-80" edge="1">
          <mxGeometry relative="1" as="geometry" />
        </mxCell>
        <mxCell id="m_rBV7yZO_tmM0qjdcom-192" style="edgeStyle=orthogonalEdgeStyle;rounded=0;orthogonalLoop=1;jettySize=auto;html=1;entryX=0;entryY=0.5;entryDx=0;entryDy=0;entryPerimeter=0;" parent="QpNmT4B13l3Vr6nJiaZD-3" source="m_rBV7yZO_tmM0qjdcom-77" target="m_rBV7yZO_tmM0qjdcom-79" edge="1">
          <mxGeometry relative="1" as="geometry">
            <Array as="points">
              <mxPoint x="500" y="115" />
              <mxPoint x="500" y="45" />
            </Array>
          </mxGeometry>
        </mxCell>
        <mxCell id="m_rBV7yZO_tmM0qjdcom-77" value="" style="points=[[0.25,0.25,0],[0.5,0,0],[0.75,0.25,0],[1,0.5,0],[0.75,0.75,0],[0.5,1,0],[0.25,0.75,0],[0,0.5,0]];shape=mxgraph.bpmn.gateway2;html=1;verticalLabelPosition=bottom;labelBackgroundColor=#ffffff;verticalAlign=top;align=center;perimeter=rhombusPerimeter;outlineConnect=0;outline=none;symbol=none;fillColor=#fff2cc;strokeColor=#d6b656;" parent="QpNmT4B13l3Vr6nJiaZD-3" vertex="1">
          <mxGeometry x="400" y="90" width="50" height="50" as="geometry" />
        </mxCell>
        <mxCell id="m_rBV7yZO_tmM0qjdcom-83" style="edgeStyle=orthogonalEdgeStyle;rounded=0;orthogonalLoop=1;jettySize=auto;html=1;exitX=0.5;exitY=1;exitDx=0;exitDy=0;exitPerimeter=0;" parent="QpNmT4B13l3Vr6nJiaZD-3" source="m_rBV7yZO_tmM0qjdcom-79" target="m_rBV7yZO_tmM0qjdcom-82" edge="1">
          <mxGeometry relative="1" as="geometry" />
        </mxCell>
        <mxCell id="m_rBV7yZO_tmM0qjdcom-79" value="Selects the beneficiary record" style="points=[[0.25,0,0],[0.5,0,0],[0.75,0,0],[1,0.25,0],[1,0.5,0],[1,0.75,0],[0.75,1,0],[0.5,1,0],[0.25,1,0],[0,0.75,0],[0,0.5,0],[0,0.25,0]];shape=mxgraph.bpmn.task;whiteSpace=wrap;rectStyle=rounded;size=10;html=1;container=1;expand=0;collapsible=0;taskMarker=abstract;fillColor=#d5e8d4;strokeColor=#82b366;fontColor=#1A3300;" parent="QpNmT4B13l3Vr6nJiaZD-3" vertex="1">
          <mxGeometry x="519.5" y="20" width="120" height="50" as="geometry" />
        </mxCell>
        <mxCell id="m_rBV7yZO_tmM0qjdcom-87" style="edgeStyle=orthogonalEdgeStyle;rounded=0;orthogonalLoop=1;jettySize=auto;html=1;" parent="QpNmT4B13l3Vr6nJiaZD-3" source="m_rBV7yZO_tmM0qjdcom-80" target="m_rBV7yZO_tmM0qjdcom-86" edge="1">
          <mxGeometry relative="1" as="geometry" />
        </mxCell>
        <mxCell id="m_rBV7yZO_tmM0qjdcom-80" value="Create fresh entry in registry" style="points=[[0.25,0,0],[0.5,0,0],[0.75,0,0],[1,0.25,0],[1,0.5,0],[1,0.75,0],[0.75,1,0],[0.5,1,0],[0.25,1,0],[0,0.75,0],[0,0.5,0],[0,0.25,0]];shape=mxgraph.bpmn.task;whiteSpace=wrap;rectStyle=rounded;size=10;html=1;container=1;expand=0;collapsible=0;taskMarker=abstract;fillColor=#d5e8d4;strokeColor=#82b366;fontColor=#1A3300;" parent="QpNmT4B13l3Vr6nJiaZD-3" vertex="1">
          <mxGeometry x="365" y="197" width="120" height="50" as="geometry" />
        </mxCell>
        <mxCell id="m_rBV7yZO_tmM0qjdcom-193" style="edgeStyle=orthogonalEdgeStyle;rounded=0;orthogonalLoop=1;jettySize=auto;html=1;entryX=0.25;entryY=0;entryDx=0;entryDy=0;entryPerimeter=0;exitX=0.75;exitY=1;exitDx=0;exitDy=0;exitPerimeter=0;" parent="QpNmT4B13l3Vr6nJiaZD-3" source="m_rBV7yZO_tmM0qjdcom-82" target="m_rBV7yZO_tmM0qjdcom-91" edge="1">
          <mxGeometry relative="1" as="geometry" />
        </mxCell>
        <mxCell id="m_rBV7yZO_tmM0qjdcom-82" value="Enrols the beneficiary to AICS program" style="points=[[0.25,0,0],[0.5,0,0],[0.75,0,0],[1,0.25,0],[1,0.5,0],[1,0.75,0],[0.75,1,0],[0.5,1,0],[0.25,1,0],[0,0.75,0],[0,0.5,0],[0,0.25,0]];shape=mxgraph.bpmn.task;whiteSpace=wrap;rectStyle=rounded;size=10;html=1;container=1;expand=0;collapsible=0;taskMarker=abstract;fillColor=#d5e8d4;strokeColor=#82b366;fontColor=#1A3300;" parent="QpNmT4B13l3Vr6nJiaZD-3" vertex="1">
          <mxGeometry x="518" y="99" width="123" height="50" as="geometry" />
        </mxCell>
        <mxCell id="m_rBV7yZO_tmM0qjdcom-104" style="edgeStyle=orthogonalEdgeStyle;rounded=0;orthogonalLoop=1;jettySize=auto;html=1;entryX=0;entryY=0.5;entryDx=0;entryDy=0;entryPerimeter=0;exitX=1;exitY=0.5;exitDx=0;exitDy=0;exitPerimeter=0;" parent="QpNmT4B13l3Vr6nJiaZD-3" source="m_rBV7yZO_tmM0qjdcom-86" target="m_rBV7yZO_tmM0qjdcom-82" edge="1">
          <mxGeometry relative="1" as="geometry">
            <mxPoint x="520" y="159" as="targetPoint" />
            <Array as="points">
              <mxPoint x="498" y="304" />
              <mxPoint x="498" y="124" />
            </Array>
          </mxGeometry>
        </mxCell>
        <mxCell id="m_rBV7yZO_tmM0qjdcom-86" value="Associates the beneficiary - client relationship" style="points=[[0.25,0,0],[0.5,0,0],[0.75,0,0],[1,0.25,0],[1,0.5,0],[1,0.75,0],[0.75,1,0],[0.5,1,0],[0.25,1,0],[0,0.75,0],[0,0.5,0],[0,0.25,0]];shape=mxgraph.bpmn.task;whiteSpace=wrap;rectStyle=rounded;size=10;html=1;container=1;expand=0;collapsible=0;taskMarker=abstract;fillColor=#d5e8d4;strokeColor=#82b366;fontColor=#1A3300;" parent="QpNmT4B13l3Vr6nJiaZD-3" vertex="1">
          <mxGeometry x="365" y="279" width="120" height="50" as="geometry" />
        </mxCell>
        <mxCell id="m_rBV7yZO_tmM0qjdcom-194" style="edgeStyle=orthogonalEdgeStyle;rounded=0;orthogonalLoop=1;jettySize=auto;html=1;entryX=0.5;entryY=1;entryDx=0;entryDy=0;entryPerimeter=0;exitX=0.75;exitY=0;exitDx=0;exitDy=0;exitPerimeter=0;" parent="QpNmT4B13l3Vr6nJiaZD-3" source="m_rBV7yZO_tmM0qjdcom-91" target="m_rBV7yZO_tmM0qjdcom-96" edge="1">
          <mxGeometry relative="1" as="geometry" />
        </mxCell>
        <mxCell id="m_rBV7yZO_tmM0qjdcom-91" value="Performs de-duplication" style="points=[[0.25,0,0],[0.5,0,0],[0.75,0,0],[1,0.25,0],[1,0.5,0],[1,0.75,0],[0.75,1,0],[0.5,1,0],[0.25,1,0],[0,0.75,0],[0,0.5,0],[0,0.25,0]];shape=mxgraph.bpmn.task;whiteSpace=wrap;rectStyle=rounded;size=10;html=1;container=1;expand=0;collapsible=0;taskMarker=abstract;fillColor=#d5e8d4;strokeColor=#82b366;fontColor=#1A3300;" parent="QpNmT4B13l3Vr6nJiaZD-3" vertex="1">
          <mxGeometry x="580" y="279" width="120" height="50" as="geometry" />
        </mxCell>
        <mxCell id="m_rBV7yZO_tmM0qjdcom-95" value="Performs manual adjudication" style="points=[[0.25,0,0],[0.5,0,0],[0.75,0,0],[1,0.25,0],[1,0.5,0],[1,0.75,0],[0.75,1,0],[0.5,1,0],[0.25,1,0],[0,0.75,0],[0,0.5,0],[0,0.25,0]];shape=mxgraph.bpmn.task;whiteSpace=wrap;rectStyle=rounded;size=10;html=1;container=1;expand=0;collapsible=0;taskMarker=abstract;fillColor=#d5e8d4;strokeColor=#82b366;fontColor=#1A3300;" parent="QpNmT4B13l3Vr6nJiaZD-3" vertex="1">
          <mxGeometry x="690" y="99" width="120" height="50" as="geometry" />
        </mxCell>
        <mxCell id="m_rBV7yZO_tmM0qjdcom-98" style="edgeStyle=orthogonalEdgeStyle;rounded=0;orthogonalLoop=1;jettySize=auto;html=1;exitX=1;exitY=0.5;exitDx=0;exitDy=0;exitPerimeter=0;" parent="QpNmT4B13l3Vr6nJiaZD-3" source="m_rBV7yZO_tmM0qjdcom-96" target="m_rBV7yZO_tmM0qjdcom-95" edge="1">
          <mxGeometry relative="1" as="geometry" />
        </mxCell>
        <mxCell id="m_rBV7yZO_tmM0qjdcom-101" style="edgeStyle=orthogonalEdgeStyle;rounded=0;orthogonalLoop=1;jettySize=auto;html=1;entryX=0;entryY=0.5;entryDx=0;entryDy=0;entryPerimeter=0;exitX=0.5;exitY=0;exitDx=0;exitDy=0;exitPerimeter=0;" parent="QpNmT4B13l3Vr6nJiaZD-3" source="m_rBV7yZO_tmM0qjdcom-96" target="m_rBV7yZO_tmM0qjdcom-100" edge="1">
          <mxGeometry relative="1" as="geometry">
            <Array as="points">
              <mxPoint x="670" y="209" />
              <mxPoint x="670" y="45" />
            </Array>
          </mxGeometry>
        </mxCell>
        <mxCell id="m_rBV7yZO_tmM0qjdcom-96" value="" style="points=[[0.25,0.25,0],[0.5,0,0],[0.75,0.25,0],[1,0.5,0],[0.75,0.75,0],[0.5,1,0],[0.25,0.75,0],[0,0.5,0]];shape=mxgraph.bpmn.gateway2;html=1;verticalLabelPosition=bottom;labelBackgroundColor=#ffffff;verticalAlign=top;align=center;perimeter=rhombusPerimeter;outlineConnect=0;outline=none;symbol=none;fillColor=#fff2cc;strokeColor=#d6b656;" parent="QpNmT4B13l3Vr6nJiaZD-3" vertex="1">
          <mxGeometry x="645" y="197" width="50" height="50" as="geometry" />
        </mxCell>
        <mxCell id="m_rBV7yZO_tmM0qjdcom-106" style="edgeStyle=orthogonalEdgeStyle;rounded=0;orthogonalLoop=1;jettySize=auto;html=1;exitX=1;exitY=0.5;exitDx=0;exitDy=0;exitPerimeter=0;entryX=0.5;entryY=0;entryDx=0;entryDy=0;entryPerimeter=0;" parent="QpNmT4B13l3Vr6nJiaZD-3" source="m_rBV7yZO_tmM0qjdcom-100" target="m_rBV7yZO_tmM0qjdcom-105" edge="1">
          <mxGeometry relative="1" as="geometry">
            <Array as="points">
              <mxPoint x="830" y="45" />
            </Array>
          </mxGeometry>
        </mxCell>
        <mxCell id="m_rBV7yZO_tmM0qjdcom-100" value="Evaluates all documents" style="points=[[0.25,0,0],[0.5,0,0],[0.75,0,0],[1,0.25,0],[1,0.5,0],[1,0.75,0],[0.75,1,0],[0.5,1,0],[0.25,1,0],[0,0.75,0],[0,0.5,0],[0,0.25,0]];shape=mxgraph.bpmn.task;whiteSpace=wrap;rectStyle=rounded;size=10;html=1;container=1;expand=0;collapsible=0;taskMarker=abstract;fillColor=#d5e8d4;strokeColor=#82b366;fontColor=#1A3300;" parent="QpNmT4B13l3Vr6nJiaZD-3" vertex="1">
          <mxGeometry x="690" y="20" width="120" height="50" as="geometry" />
        </mxCell>
        <mxCell id="AgpF8Hm68eTMTZU38w87-8" value="" style="shape=image;html=1;verticalAlign=top;verticalLabelPosition=bottom;labelBackgroundColor=#ffffff;imageAspect=0;aspect=fixed;image=https://cdn0.iconfinder.com/data/icons/phosphor-regular-vol-3/256/hand-palm-128.png;rotation=90;" parent="m_rBV7yZO_tmM0qjdcom-100" vertex="1">
          <mxGeometry x="3" y="2" width="14" height="14" as="geometry" />
        </mxCell>
        <mxCell id="m_rBV7yZO_tmM0qjdcom-208" style="edgeStyle=orthogonalEdgeStyle;rounded=0;orthogonalLoop=1;jettySize=auto;html=1;" parent="QpNmT4B13l3Vr6nJiaZD-3" source="m_rBV7yZO_tmM0qjdcom-105" target="m_rBV7yZO_tmM0qjdcom-107" edge="1">
          <mxGeometry relative="1" as="geometry" />
        </mxCell>
        <mxCell id="m_rBV7yZO_tmM0qjdcom-105" value="Uploads the documents" style="points=[[0.25,0,0],[0.5,0,0],[0.75,0,0],[1,0.25,0],[1,0.5,0],[1,0.75,0],[0.75,1,0],[0.5,1,0],[0.25,1,0],[0,0.75,0],[0,0.5,0],[0,0.25,0]];shape=mxgraph.bpmn.task;whiteSpace=wrap;rectStyle=rounded;size=10;html=1;container=1;expand=0;collapsible=0;taskMarker=abstract;fillColor=#d5e8d4;strokeColor=#82b366;fontColor=#1A3300;" parent="QpNmT4B13l3Vr6nJiaZD-3" vertex="1">
          <mxGeometry x="770" y="197" width="120" height="50" as="geometry" />
        </mxCell>
        <mxCell id="m_rBV7yZO_tmM0qjdcom-110" style="edgeStyle=orthogonalEdgeStyle;rounded=0;orthogonalLoop=1;jettySize=auto;html=1;entryX=0;entryY=0.5;entryDx=0;entryDy=0;entryPerimeter=0;" parent="QpNmT4B13l3Vr6nJiaZD-3" source="m_rBV7yZO_tmM0qjdcom-107" target="m_rBV7yZO_tmM0qjdcom-109" edge="1">
          <mxGeometry relative="1" as="geometry" />
        </mxCell>
        <mxCell id="m_rBV7yZO_tmM0qjdcom-107" value="Creates the entitlement for the beneficiary" style="points=[[0.25,0,0],[0.5,0,0],[0.75,0,0],[1,0.25,0],[1,0.5,0],[1,0.75,0],[0.75,1,0],[0.5,1,0],[0.25,1,0],[0,0.75,0],[0,0.5,0],[0,0.25,0]];shape=mxgraph.bpmn.task;whiteSpace=wrap;rectStyle=rounded;size=10;html=1;container=1;expand=0;collapsible=0;taskMarker=abstract;fillColor=#d5e8d4;strokeColor=#82b366;fontColor=#1A3300;" parent="QpNmT4B13l3Vr6nJiaZD-3" vertex="1">
          <mxGeometry x="770" y="279" width="120" height="50" as="geometry" />
        </mxCell>
        <mxCell id="m_rBV7yZO_tmM0qjdcom-112" style="edgeStyle=orthogonalEdgeStyle;rounded=0;orthogonalLoop=1;jettySize=auto;html=1;entryX=0.5;entryY=1;entryDx=0;entryDy=0;entryPerimeter=0;" parent="QpNmT4B13l3Vr6nJiaZD-3" source="m_rBV7yZO_tmM0qjdcom-109" target="m_rBV7yZO_tmM0qjdcom-111" edge="1">
          <mxGeometry relative="1" as="geometry" />
        </mxCell>
        <mxCell id="m_rBV7yZO_tmM0qjdcom-109" value="Provides voucher payload data" style="points=[[0.25,0,0],[0.5,0,0],[0.75,0,0],[1,0.25,0],[1,0.5,0],[1,0.75,0],[0.75,1,0],[0.5,1,0],[0.25,1,0],[0,0.75,0],[0,0.5,0],[0,0.25,0]];shape=mxgraph.bpmn.task;whiteSpace=wrap;rectStyle=rounded;size=10;html=1;container=1;expand=0;collapsible=0;taskMarker=abstract;fillColor=#d5e8d4;strokeColor=#82b366;fontColor=#1A3300;" parent="QpNmT4B13l3Vr6nJiaZD-3" vertex="1">
          <mxGeometry x="930" y="279" width="120" height="50" as="geometry" />
        </mxCell>
        <mxCell id="m_rBV7yZO_tmM0qjdcom-211" style="edgeStyle=orthogonalEdgeStyle;rounded=0;orthogonalLoop=1;jettySize=auto;html=1;entryX=0.5;entryY=1;entryDx=0;entryDy=0;entryPerimeter=0;" parent="QpNmT4B13l3Vr6nJiaZD-3" source="m_rBV7yZO_tmM0qjdcom-111" target="m_rBV7yZO_tmM0qjdcom-113" edge="1">
          <mxGeometry relative="1" as="geometry" />
        </mxCell>
        <mxCell id="m_rBV7yZO_tmM0qjdcom-111" value="Generate and print voucher&amp;nbsp;" style="points=[[0.25,0,0],[0.5,0,0],[0.75,0,0],[1,0.25,0],[1,0.5,0],[1,0.75,0],[0.75,1,0],[0.5,1,0],[0.25,1,0],[0,0.75,0],[0,0.5,0],[0,0.25,0]];shape=mxgraph.bpmn.task;whiteSpace=wrap;rectStyle=rounded;size=10;html=1;container=1;expand=0;collapsible=0;taskMarker=abstract;fillColor=#d5e8d4;strokeColor=#82b366;fontColor=#1A3300;" parent="QpNmT4B13l3Vr6nJiaZD-3" vertex="1">
          <mxGeometry x="930" y="197" width="120" height="50" as="geometry" />
        </mxCell>
        <mxCell id="m_rBV7yZO_tmM0qjdcom-116" style="edgeStyle=orthogonalEdgeStyle;rounded=0;orthogonalLoop=1;jettySize=auto;html=1;" parent="QpNmT4B13l3Vr6nJiaZD-3" source="m_rBV7yZO_tmM0qjdcom-113" target="m_rBV7yZO_tmM0qjdcom-115" edge="1">
          <mxGeometry relative="1" as="geometry" />
        </mxCell>
        <mxCell id="m_rBV7yZO_tmM0qjdcom-210" style="edgeStyle=orthogonalEdgeStyle;rounded=0;orthogonalLoop=1;jettySize=auto;html=1;exitX=0.5;exitY=0;exitDx=0;exitDy=0;exitPerimeter=0;" parent="QpNmT4B13l3Vr6nJiaZD-3" source="m_rBV7yZO_tmM0qjdcom-113" target="m_rBV7yZO_tmM0qjdcom-209" edge="1">
          <mxGeometry relative="1" as="geometry">
            <Array as="points" />
          </mxGeometry>
        </mxCell>
        <mxCell id="m_rBV7yZO_tmM0qjdcom-113" value="Shares the voucher to the client" style="points=[[0.25,0,0],[0.5,0,0],[0.75,0,0],[1,0.25,0],[1,0.5,0],[1,0.75,0],[0.75,1,0],[0.5,1,0],[0.25,1,0],[0,0.75,0],[0,0.5,0],[0,0.25,0]];shape=mxgraph.bpmn.task;whiteSpace=wrap;rectStyle=rounded;size=10;html=1;container=1;expand=0;collapsible=0;taskMarker=abstract;fillColor=#d5e8d4;strokeColor=#82b366;fontColor=#1A3300;" parent="QpNmT4B13l3Vr6nJiaZD-3" vertex="1">
          <mxGeometry x="930" y="99" width="120" height="58" as="geometry" />
        </mxCell>
        <mxCell id="m_rBV7yZO_tmM0qjdcom-115" value="" style="points=[[0.145,0.145,0],[0.5,0,0],[0.855,0.145,0],[1,0.5,0],[0.855,0.855,0],[0.5,1,0],[0.145,0.855,0],[0,0.5,0]];shape=mxgraph.bpmn.event;html=1;verticalLabelPosition=bottom;labelBackgroundColor=#ffffff;verticalAlign=top;align=center;perimeter=ellipsePerimeter;outlineConnect=0;aspect=fixed;outline=standard;symbol=message;fillColor=#fad7ac;strokeColor=#b46504;" parent="QpNmT4B13l3Vr6nJiaZD-3" vertex="1">
          <mxGeometry x="850" y="20" width="50" height="50" as="geometry" />
        </mxCell>
        <mxCell id="m_rBV7yZO_tmM0qjdcom-189" style="edgeStyle=orthogonalEdgeStyle;rounded=0;orthogonalLoop=1;jettySize=auto;html=1;entryX=0.5;entryY=1;entryDx=0;entryDy=0;entryPerimeter=0;" parent="QpNmT4B13l3Vr6nJiaZD-3" source="m_rBV7yZO_tmM0qjdcom-188" target="m_rBV7yZO_tmM0qjdcom-5" edge="1">
          <mxGeometry relative="1" as="geometry" />
        </mxCell>
        <mxCell id="m_rBV7yZO_tmM0qjdcom-188" value="SWO logs in to OpenG2P application" style="points=[[0.25,0,0],[0.5,0,0],[0.75,0,0],[1,0.25,0],[1,0.5,0],[1,0.75,0],[0.75,1,0],[0.5,1,0],[0.25,1,0],[0,0.75,0],[0,0.5,0],[0,0.25,0]];shape=mxgraph.bpmn.task;whiteSpace=wrap;rectStyle=rounded;size=10;html=1;container=1;expand=0;collapsible=0;taskMarker=abstract;fillColor=#d5e8d4;strokeColor=#82b366;fontColor=#1A3300;" parent="QpNmT4B13l3Vr6nJiaZD-3" vertex="1">
          <mxGeometry x="40" y="197" width="120" height="50" as="geometry" />
        </mxCell>
        <mxCell id="m_rBV7yZO_tmM0qjdcom-191" style="edgeStyle=orthogonalEdgeStyle;rounded=0;orthogonalLoop=1;jettySize=auto;html=1;" parent="QpNmT4B13l3Vr6nJiaZD-3" source="m_rBV7yZO_tmM0qjdcom-190" target="m_rBV7yZO_tmM0qjdcom-188" edge="1">
          <mxGeometry relative="1" as="geometry" />
        </mxCell>
        <mxCell id="m_rBV7yZO_tmM0qjdcom-190" value="" style="points=[[0.145,0.145,0],[0.5,0,0],[0.855,0.145,0],[1,0.5,0],[0.855,0.855,0],[0.5,1,0],[0.145,0.855,0],[0,0.5,0]];shape=mxgraph.bpmn.event;html=1;verticalLabelPosition=bottom;labelBackgroundColor=#ffffff;verticalAlign=top;align=center;perimeter=ellipsePerimeter;outlineConnect=0;aspect=fixed;outline=standard;symbol=general;fillColor=#dae8fc;strokeColor=#6c8ebf;" parent="QpNmT4B13l3Vr6nJiaZD-3" vertex="1">
          <mxGeometry x="75" y="279" width="50" height="50" as="geometry" />
        </mxCell>
        <mxCell id="m_rBV7yZO_tmM0qjdcom-200" value="Record found" style="text;html=1;strokeColor=none;fillColor=none;align=center;verticalAlign=middle;whiteSpace=wrap;rounded=0;" parent="QpNmT4B13l3Vr6nJiaZD-3" vertex="1">
          <mxGeometry x="435" y="87" width="68" height="10" as="geometry" />
        </mxCell>
        <mxCell id="m_rBV7yZO_tmM0qjdcom-201" value="Record not &lt;br&gt;found" style="text;html=1;strokeColor=none;fillColor=none;align=center;verticalAlign=middle;whiteSpace=wrap;rounded=0;" parent="QpNmT4B13l3Vr6nJiaZD-3" vertex="1">
          <mxGeometry x="418" y="156" width="83" height="14" as="geometry" />
        </mxCell>
        <mxCell id="m_rBV7yZO_tmM0qjdcom-202" value="Flagged duplicate" style="text;html=1;strokeColor=none;fillColor=none;align=center;verticalAlign=middle;whiteSpace=wrap;rounded=0;" parent="QpNmT4B13l3Vr6nJiaZD-3" vertex="1">
          <mxGeometry x="750" y="168" width="68" height="10" as="geometry" />
        </mxCell>
        <mxCell id="m_rBV7yZO_tmM0qjdcom-204" value="Duplicate not found" style="text;html=1;strokeColor=none;fillColor=none;align=center;verticalAlign=middle;whiteSpace=wrap;rounded=0;" parent="QpNmT4B13l3Vr6nJiaZD-3" vertex="1">
          <mxGeometry x="606" y="166" width="68" height="14" as="geometry" />
        </mxCell>
        <mxCell id="m_rBV7yZO_tmM0qjdcom-209" value="" style="points=[[0.145,0.145,0],[0.5,0,0],[0.855,0.145,0],[1,0.5,0],[0.855,0.855,0],[0.5,1,0],[0.145,0.855,0],[0,0.5,0]];shape=mxgraph.bpmn.event;html=1;verticalLabelPosition=bottom;labelBackgroundColor=#ffffff;verticalAlign=top;align=center;perimeter=ellipsePerimeter;outlineConnect=0;aspect=fixed;outline=end;symbol=terminate;fillColor=#dae8fc;strokeColor=#6c8ebf;" parent="QpNmT4B13l3Vr6nJiaZD-3" vertex="1">
          <mxGeometry x="965" y="19" width="50" height="50" as="geometry" />
        </mxCell>
        <mxCell id="m_rBV7yZO_tmM0qjdcom-3" value="OpenG2P" style="swimlane;html=1;startSize=20;horizontal=0;fillColor=#f5f5f5;fontColor=#333333;strokeColor=#666666;" parent="QpNmT4B13l3Vr6nJiaZD-1" vertex="1">
          <mxGeometry x="20" y="500" width="1130" height="160" as="geometry" />
        </mxCell>
        <mxCell id="m_rBV7yZO_tmM0qjdcom-21" value="" style="points=[[0.25,0.25,0],[0.5,0,0],[0.75,0.25,0],[1,0.5,0],[0.75,0.75,0],[0.5,1,0],[0.25,0.75,0],[0,0.5,0]];shape=mxgraph.bpmn.gateway2;html=1;verticalLabelPosition=bottom;labelBackgroundColor=#ffffff;verticalAlign=top;align=center;perimeter=rhombusPerimeter;outlineConnect=0;outline=end;symbol=general;fillColor=#fff2cc;strokeColor=#d6b656;" parent="m_rBV7yZO_tmM0qjdcom-3" vertex="1">
          <mxGeometry x="255" y="30" width="50" height="50" as="geometry" />
        </mxCell>
        <mxCell id="m_rBV7yZO_tmM0qjdcom-55" value="Do nothing" style="points=[[0.25,0,0],[0.5,0,0],[0.75,0,0],[1,0.25,0],[1,0.5,0],[1,0.75,0],[0.75,1,0],[0.5,1,0],[0.25,1,0],[0,0.75,0],[0,0.5,0],[0,0.25,0]];shape=mxgraph.bpmn.task;whiteSpace=wrap;rectStyle=rounded;size=10;html=1;container=1;expand=0;collapsible=0;taskMarker=abstract;fillColor=#d5e8d4;strokeColor=#82b366;fontColor=#1A3300;" parent="m_rBV7yZO_tmM0qjdcom-3" vertex="1">
          <mxGeometry x="220" y="98" width="120" height="50" as="geometry" />
        </mxCell>
        <mxCell id="m_rBV7yZO_tmM0qjdcom-59" value="Token does not match" style="edgeLabel;html=1;align=center;verticalAlign=middle;resizable=0;points=[];" parent="m_rBV7yZO_tmM0qjdcom-3" vertex="1" connectable="0">
          <mxGeometry x="215" y="40" as="geometry">
            <mxPoint x="2" as="offset" />
          </mxGeometry>
        </mxCell>
        <mxCell id="m_rBV7yZO_tmM0qjdcom-61" value="Token exist and matches" style="text;html=1;strokeColor=none;fillColor=none;align=center;verticalAlign=middle;whiteSpace=wrap;rounded=0;" parent="m_rBV7yZO_tmM0qjdcom-3" vertex="1">
          <mxGeometry x="158" y="80" width="119" height="16" as="geometry" />
        </mxCell>
        <mxCell id="m_rBV7yZO_tmM0qjdcom-62" value="" style="points=[[0.145,0.145,0],[0.5,0,0],[0.855,0.145,0],[1,0.5,0],[0.855,0.855,0],[0.5,1,0],[0.145,0.855,0],[0,0.5,0]];shape=mxgraph.bpmn.event;html=1;verticalLabelPosition=bottom;labelBackgroundColor=#ffffff;verticalAlign=top;align=center;perimeter=ellipsePerimeter;outlineConnect=0;aspect=fixed;outline=end;symbol=error;fillColor=#f8cecc;strokeColor=#b85450;" parent="m_rBV7yZO_tmM0qjdcom-3" vertex="1">
          <mxGeometry x="75" y="30" width="50" height="50" as="geometry" />
        </mxCell>
        <mxCell id="m_rBV7yZO_tmM0qjdcom-57" style="edgeStyle=orthogonalEdgeStyle;rounded=0;orthogonalLoop=1;jettySize=auto;html=1;entryX=1;entryY=0.5;entryDx=0;entryDy=0;entryPerimeter=0;exitX=0;exitY=0.5;exitDx=0;exitDy=0;exitPerimeter=0;" parent="m_rBV7yZO_tmM0qjdcom-3" source="m_rBV7yZO_tmM0qjdcom-21" target="m_rBV7yZO_tmM0qjdcom-62" edge="1">
          <mxGeometry relative="1" as="geometry">
            <mxPoint x="195" y="130" as="sourcePoint" />
            <mxPoint x="345" y="242" as="targetPoint" />
            <Array as="points">
              <mxPoint x="255" y="55" />
              <mxPoint x="255" y="55" />
            </Array>
          </mxGeometry>
        </mxCell>
        <mxCell id="m_rBV7yZO_tmM0qjdcom-64" value="Populates token in the registry" style="points=[[0.25,0,0],[0.5,0,0],[0.75,0,0],[1,0.25,0],[1,0.5,0],[1,0.75,0],[0.75,1,0],[0.5,1,0],[0.25,1,0],[0,0.75,0],[0,0.5,0],[0,0.25,0]];shape=mxgraph.bpmn.task;whiteSpace=wrap;rectStyle=rounded;size=10;html=1;container=1;expand=0;collapsible=0;taskMarker=abstract;fillColor=#d5e8d4;strokeColor=#82b366;fontColor=#1A3300;" parent="m_rBV7yZO_tmM0qjdcom-3" vertex="1">
          <mxGeometry x="340" y="30" width="120" height="50" as="geometry" />
        </mxCell>
        <mxCell id="m_rBV7yZO_tmM0qjdcom-24" style="edgeStyle=orthogonalEdgeStyle;rounded=0;orthogonalLoop=1;jettySize=auto;html=1;entryX=0;entryY=0.5;entryDx=0;entryDy=0;entryPerimeter=0;" parent="m_rBV7yZO_tmM0qjdcom-3" source="m_rBV7yZO_tmM0qjdcom-21" target="m_rBV7yZO_tmM0qjdcom-64" edge="1">
          <mxGeometry relative="1" as="geometry">
            <mxPoint x="345" y="172" as="targetPoint" />
            <mxPoint x="325" y="172" as="sourcePoint" />
          </mxGeometry>
        </mxCell>
        <mxCell id="m_rBV7yZO_tmM0qjdcom-25" style="edgeStyle=orthogonalEdgeStyle;rounded=0;orthogonalLoop=1;jettySize=auto;html=1;exitX=0.5;exitY=1;exitDx=0;exitDy=0;exitPerimeter=0;" parent="m_rBV7yZO_tmM0qjdcom-3" source="m_rBV7yZO_tmM0qjdcom-21" target="m_rBV7yZO_tmM0qjdcom-55" edge="1">
          <mxGeometry relative="1" as="geometry">
            <mxPoint x="565" y="220" as="targetPoint" />
            <mxPoint x="285" y="90" as="sourcePoint" />
            <Array as="points" />
          </mxGeometry>
        </mxCell>
        <mxCell id="m_rBV7yZO_tmM0qjdcom-58" value="Token does not exists" style="edgeLabel;html=1;align=center;verticalAlign=middle;resizable=0;points=[];" parent="m_rBV7yZO_tmM0qjdcom-25" vertex="1" connectable="0">
          <mxGeometry x="0.1589" y="-1" relative="1" as="geometry">
            <mxPoint x="84" y="-72" as="offset" />
          </mxGeometry>
        </mxCell>
        <mxCell id="m_rBV7yZO_tmM0qjdcom-89" value="Checks the coded eligibility rules&lt;br&gt;(Eg. prev cash assistance within 3 months)" style="points=[[0.25,0,0],[0.5,0,0],[0.75,0,0],[1,0.25,0],[1,0.5,0],[1,0.75,0],[0.75,1,0],[0.5,1,0],[0.25,1,0],[0,0.75,0],[0,0.5,0],[0,0.25,0]];shape=mxgraph.bpmn.task;whiteSpace=wrap;rectStyle=rounded;size=10;html=1;container=1;expand=0;collapsible=0;taskMarker=abstract;fillColor=#d5e8d4;strokeColor=#82b366;fontColor=#1A3300;" parent="m_rBV7yZO_tmM0qjdcom-3" vertex="1">
          <mxGeometry x="488" y="22" width="120" height="65" as="geometry" />
        </mxCell>
        <mxCell id="m_rBV7yZO_tmM0qjdcom-94" value="Runs de-duplication algorithm" style="points=[[0.25,0,0],[0.5,0,0],[0.75,0,0],[1,0.25,0],[1,0.5,0],[1,0.75,0],[0.75,1,0],[0.5,1,0],[0.25,1,0],[0,0.75,0],[0,0.5,0],[0,0.25,0]];shape=mxgraph.bpmn.task;whiteSpace=wrap;rectStyle=rounded;size=10;html=1;container=1;expand=0;collapsible=0;taskMarker=abstract;fillColor=#d5e8d4;strokeColor=#82b366;fontColor=#1A3300;" parent="m_rBV7yZO_tmM0qjdcom-3" vertex="1">
          <mxGeometry x="580" y="97" width="120" height="50" as="geometry" />
        </mxCell>
        <mxCell id="m_rBV7yZO_tmM0qjdcom-164" style="edgeStyle=orthogonalEdgeStyle;rounded=0;orthogonalLoop=1;jettySize=auto;html=1;entryX=0.5;entryY=1;entryDx=0;entryDy=0;entryPerimeter=0;" parent="m_rBV7yZO_tmM0qjdcom-3" source="m_rBV7yZO_tmM0qjdcom-137" target="m_rBV7yZO_tmM0qjdcom-166" edge="1">
          <mxGeometry relative="1" as="geometry">
            <mxPoint x="840" y="134" as="targetPoint" />
          </mxGeometry>
        </mxCell>
        <mxCell id="m_rBV7yZO_tmM0qjdcom-137" value="Saves claim in the system" style="points=[[0.25,0,0],[0.5,0,0],[0.75,0,0],[1,0.25,0],[1,0.5,0],[1,0.75,0],[0.75,1,0],[0.5,1,0],[0.25,1,0],[0,0.75,0],[0,0.5,0],[0,0.25,0]];shape=mxgraph.bpmn.task;whiteSpace=wrap;rectStyle=rounded;size=10;html=1;container=1;expand=0;collapsible=0;taskMarker=abstract;fillColor=#d5e8d4;strokeColor=#82b366;fontColor=#1A3300;" parent="m_rBV7yZO_tmM0qjdcom-3" vertex="1">
          <mxGeometry x="920" y="97" width="120" height="51" as="geometry" />
        </mxCell>
        <mxCell id="m_rBV7yZO_tmM0qjdcom-168" style="edgeStyle=orthogonalEdgeStyle;rounded=0;orthogonalLoop=1;jettySize=auto;html=1;entryX=0.5;entryY=0;entryDx=0;entryDy=0;entryPerimeter=0;" parent="m_rBV7yZO_tmM0qjdcom-3" source="m_rBV7yZO_tmM0qjdcom-166" target="m_rBV7yZO_tmM0qjdcom-167" edge="1">
          <mxGeometry relative="1" as="geometry">
            <mxPoint x="810" y="109" as="targetPoint" />
          </mxGeometry>
        </mxCell>
        <mxCell id="m_rBV7yZO_tmM0qjdcom-166" value="Notifies OpenG2P Admin" style="points=[[0.25,0,0],[0.5,0,0],[0.75,0,0],[1,0.25,0],[1,0.5,0],[1,0.75,0],[0.75,1,0],[0.5,1,0],[0.25,1,0],[0,0.75,0],[0,0.5,0],[0,0.25,0]];shape=mxgraph.bpmn.task;whiteSpace=wrap;rectStyle=rounded;size=10;html=1;container=1;expand=0;collapsible=0;taskMarker=abstract;fillColor=#d5e8d4;strokeColor=#82b366;fontColor=#1A3300;" parent="m_rBV7yZO_tmM0qjdcom-3" vertex="1">
          <mxGeometry x="920" y="14.5" width="120" height="51" as="geometry" />
        </mxCell>
        <mxCell id="m_rBV7yZO_tmM0qjdcom-167" value="" style="points=[[0.145,0.145,0],[0.5,0,0],[0.855,0.145,0],[1,0.5,0],[0.855,0.855,0],[0.5,1,0],[0.145,0.855,0],[0,0.5,0]];shape=mxgraph.bpmn.event;html=1;verticalLabelPosition=bottom;labelBackgroundColor=#ffffff;verticalAlign=top;align=center;perimeter=ellipsePerimeter;outlineConnect=0;aspect=fixed;outline=standard;symbol=message;fillColor=#fad7ac;strokeColor=#b46504;" parent="m_rBV7yZO_tmM0qjdcom-3" vertex="1">
          <mxGeometry x="790" y="98" width="50" height="50" as="geometry" />
        </mxCell>
        <mxCell id="m_rBV7yZO_tmM0qjdcom-151" value="OpenG2P Admin" style="swimlane;html=1;startSize=20;horizontal=0;fillColor=#f5f5f5;fontColor=#333333;strokeColor=#666666;" parent="QpNmT4B13l3Vr6nJiaZD-1" vertex="1">
          <mxGeometry x="20" y="660" width="1130" height="160" as="geometry" />
        </mxCell>
        <mxCell id="m_rBV7yZO_tmM0qjdcom-177" style="edgeStyle=orthogonalEdgeStyle;rounded=0;orthogonalLoop=1;jettySize=auto;html=1;" parent="m_rBV7yZO_tmM0qjdcom-151" source="m_rBV7yZO_tmM0qjdcom-165" target="m_rBV7yZO_tmM0qjdcom-170" edge="1">
          <mxGeometry relative="1" as="geometry" />
        </mxCell>
        <mxCell id="m_rBV7yZO_tmM0qjdcom-165" value="" style="points=[[0.145,0.145,0],[0.5,0,0],[0.855,0.145,0],[1,0.5,0],[0.855,0.855,0],[0.5,1,0],[0.145,0.855,0],[0,0.5,0]];shape=mxgraph.bpmn.event;html=1;verticalLabelPosition=bottom;labelBackgroundColor=#ffffff;verticalAlign=top;align=center;perimeter=ellipsePerimeter;outlineConnect=0;aspect=fixed;outline=end;symbol=message;fillColor=#fad7ac;strokeColor=#b46504;" parent="m_rBV7yZO_tmM0qjdcom-151" vertex="1">
          <mxGeometry x="790" y="19.5" width="50" height="50" as="geometry" />
        </mxCell>
        <mxCell id="m_rBV7yZO_tmM0qjdcom-179" style="edgeStyle=orthogonalEdgeStyle;rounded=0;orthogonalLoop=1;jettySize=auto;html=1;entryX=0.5;entryY=0;entryDx=0;entryDy=0;entryPerimeter=0;" parent="m_rBV7yZO_tmM0qjdcom-151" target="m_rBV7yZO_tmM0qjdcom-178" edge="1">
          <mxGeometry relative="1" as="geometry">
            <mxPoint x="510" y="60" as="sourcePoint" />
            <mxPoint x="510" y="109" as="targetPoint" />
          </mxGeometry>
        </mxCell>
        <mxCell id="m_rBV7yZO_tmM0qjdcom-170" value="Receives claim &lt;br&gt;notification" style="points=[[0.25,0,0],[0.5,0,0],[0.75,0,0],[1,0.25,0],[1,0.5,0],[1,0.75,0],[0.75,1,0],[0.5,1,0],[0.25,1,0],[0,0.75,0],[0,0.5,0],[0,0.25,0]];shape=mxgraph.bpmn.task;whiteSpace=wrap;rectStyle=rounded;size=10;html=1;container=1;expand=0;collapsible=0;taskMarker=abstract;fillColor=#d5e8d4;strokeColor=#82b366;fontColor=#1A3300;" parent="m_rBV7yZO_tmM0qjdcom-151" vertex="1">
          <mxGeometry x="450" y="19" width="120" height="51" as="geometry" />
        </mxCell>
        <mxCell id="m_rBV7yZO_tmM0qjdcom-174" value="" style="points=[[0.145,0.145,0],[0.5,0,0],[0.855,0.145,0],[1,0.5,0],[0.855,0.855,0],[0.5,1,0],[0.145,0.855,0],[0,0.5,0]];shape=mxgraph.bpmn.event;html=1;verticalLabelPosition=bottom;labelBackgroundColor=#ffffff;verticalAlign=top;align=center;perimeter=ellipsePerimeter;outlineConnect=0;aspect=fixed;outline=standard;symbol=general;fillColor=#dae8fc;strokeColor=#6c8ebf;" parent="m_rBV7yZO_tmM0qjdcom-151" vertex="1">
          <mxGeometry x="70" y="19" width="50" height="50" as="geometry" />
        </mxCell>
        <mxCell id="m_rBV7yZO_tmM0qjdcom-176" style="edgeStyle=orthogonalEdgeStyle;rounded=0;orthogonalLoop=1;jettySize=auto;html=1;" parent="m_rBV7yZO_tmM0qjdcom-151" source="m_rBV7yZO_tmM0qjdcom-175" target="m_rBV7yZO_tmM0qjdcom-170" edge="1">
          <mxGeometry relative="1" as="geometry" />
        </mxCell>
        <mxCell id="m_rBV7yZO_tmM0qjdcom-175" value="Admin logs into OpenG2P Application" style="points=[[0.25,0,0],[0.5,0,0],[0.75,0,0],[1,0.25,0],[1,0.5,0],[1,0.75,0],[0.75,1,0],[0.5,1,0],[0.25,1,0],[0,0.75,0],[0,0.5,0],[0,0.25,0]];shape=mxgraph.bpmn.task;whiteSpace=wrap;rectStyle=rounded;size=10;html=1;container=1;expand=0;collapsible=0;taskMarker=abstract;fillColor=#d5e8d4;strokeColor=#82b366;fontColor=#1A3300;" parent="m_rBV7yZO_tmM0qjdcom-151" vertex="1">
          <mxGeometry x="260" y="19" width="120" height="50" as="geometry" />
        </mxCell>
        <mxCell id="m_rBV7yZO_tmM0qjdcom-173" style="edgeStyle=orthogonalEdgeStyle;rounded=0;orthogonalLoop=1;jettySize=auto;html=1;" parent="m_rBV7yZO_tmM0qjdcom-151" source="m_rBV7yZO_tmM0qjdcom-174" target="m_rBV7yZO_tmM0qjdcom-175" edge="1">
          <mxGeometry relative="1" as="geometry" />
        </mxCell>
        <mxCell id="m_rBV7yZO_tmM0qjdcom-181" style="edgeStyle=orthogonalEdgeStyle;rounded=0;orthogonalLoop=1;jettySize=auto;html=1;" parent="m_rBV7yZO_tmM0qjdcom-151" source="m_rBV7yZO_tmM0qjdcom-178" target="m_rBV7yZO_tmM0qjdcom-180" edge="1">
          <mxGeometry relative="1" as="geometry" />
        </mxCell>
        <mxCell id="m_rBV7yZO_tmM0qjdcom-178" value="Verifies the claim" style="points=[[0.25,0,0],[0.5,0,0],[0.75,0,0],[1,0.25,0],[1,0.5,0],[1,0.75,0],[0.75,1,0],[0.5,1,0],[0.25,1,0],[0,0.75,0],[0,0.5,0],[0,0.25,0]];shape=mxgraph.bpmn.task;whiteSpace=wrap;rectStyle=rounded;size=10;html=1;container=1;expand=0;collapsible=0;taskMarker=abstract;fillColor=#d5e8d4;strokeColor=#82b366;fontColor=#1A3300;" parent="m_rBV7yZO_tmM0qjdcom-151" vertex="1">
          <mxGeometry x="450" y="89" width="120" height="51" as="geometry" />
        </mxCell>
        <mxCell id="m_rBV7yZO_tmM0qjdcom-197" style="edgeStyle=orthogonalEdgeStyle;rounded=0;orthogonalLoop=1;jettySize=auto;html=1;" parent="m_rBV7yZO_tmM0qjdcom-151" source="m_rBV7yZO_tmM0qjdcom-180" target="m_rBV7yZO_tmM0qjdcom-196" edge="1">
          <mxGeometry relative="1" as="geometry" />
        </mxCell>
        <mxCell id="m_rBV7yZO_tmM0qjdcom-180" value="Triggers digital payment against the claim and voucher&amp;nbsp;" style="points=[[0.25,0,0],[0.5,0,0],[0.75,0,0],[1,0.25,0],[1,0.5,0],[1,0.75,0],[0.75,1,0],[0.5,1,0],[0.25,1,0],[0,0.75,0],[0,0.5,0],[0,0.25,0]];shape=mxgraph.bpmn.task;whiteSpace=wrap;rectStyle=rounded;size=10;html=1;container=1;expand=0;collapsible=0;taskMarker=abstract;fillColor=#d5e8d4;strokeColor=#82b366;fontColor=#1A3300;" parent="m_rBV7yZO_tmM0qjdcom-151" vertex="1">
          <mxGeometry x="260" y="89" width="130" height="51" as="geometry" />
        </mxCell>
        <mxCell id="m_rBV7yZO_tmM0qjdcom-196" value="" style="points=[[0.145,0.145,0],[0.5,0,0],[0.855,0.145,0],[1,0.5,0],[0.855,0.855,0],[0.5,1,0],[0.145,0.855,0],[0,0.5,0]];shape=mxgraph.bpmn.event;html=1;verticalLabelPosition=bottom;labelBackgroundColor=#ffffff;verticalAlign=top;align=center;perimeter=ellipsePerimeter;outlineConnect=0;aspect=fixed;outline=end;symbol=terminate;fillColor=#dae8fc;strokeColor=#6c8ebf;" parent="m_rBV7yZO_tmM0qjdcom-151" vertex="1">
          <mxGeometry x="70" y="89.5" width="50" height="50" as="geometry" />
        </mxCell>
        <mxCell id="m_rBV7yZO_tmM0qjdcom-6" value="" style="edgeStyle=elbowEdgeStyle;fontSize=12;html=1;endFill=0;startFill=0;endSize=6;startSize=6;dashed=1;dashPattern=1 4;endArrow=openThin;startArrow=none;rounded=0;entryX=0.5;entryY=0;entryDx=0;entryDy=0;entryPerimeter=0;exitX=0.5;exitY=1;exitDx=0;exitDy=0;exitPerimeter=0;" parent="QpNmT4B13l3Vr6nJiaZD-1" source="QpNmT4B13l3Vr6nJiaZD-6" target="m_rBV7yZO_tmM0qjdcom-5" edge="1">
          <mxGeometry width="160" relative="1" as="geometry">
            <mxPoint x="245" y="120" as="sourcePoint" />
            <mxPoint x="125" y="160" as="targetPoint" />
            <Array as="points">
              <mxPoint x="120" y="152" />
              <mxPoint x="215" y="90" />
              <mxPoint x="165" y="80" />
              <mxPoint x="125" y="130" />
              <mxPoint x="125" y="110" />
              <mxPoint x="125" y="110" />
            </Array>
          </mxGeometry>
        </mxCell>
        <mxCell id="m_rBV7yZO_tmM0qjdcom-66" value="" style="edgeStyle=elbowEdgeStyle;fontSize=12;html=1;endFill=0;startFill=0;endSize=6;startSize=6;dashed=1;dashPattern=1 4;endArrow=openThin;startArrow=none;rounded=0;exitX=0.5;exitY=1;exitDx=0;exitDy=0;exitPerimeter=0;entryX=0.5;entryY=0;entryDx=0;entryDy=0;entryPerimeter=0;" parent="QpNmT4B13l3Vr6nJiaZD-1" source="m_rBV7yZO_tmM0qjdcom-65" target="m_rBV7yZO_tmM0qjdcom-63" edge="1">
          <mxGeometry width="160" relative="1" as="geometry">
            <mxPoint x="715" y="118" as="sourcePoint" />
            <mxPoint x="905" y="200" as="targetPoint" />
            <Array as="points">
              <mxPoint x="445" y="152" />
              <mxPoint x="735" y="180" />
            </Array>
          </mxGeometry>
        </mxCell>
        <mxCell id="m_rBV7yZO_tmM0qjdcom-69" style="edgeStyle=orthogonalEdgeStyle;rounded=0;orthogonalLoop=1;jettySize=auto;html=1;dashed=1;endArrow=open;endFill=0;exitX=0.5;exitY=1;exitDx=0;exitDy=0;exitPerimeter=0;" parent="QpNmT4B13l3Vr6nJiaZD-1" source="m_rBV7yZO_tmM0qjdcom-18" target="m_rBV7yZO_tmM0qjdcom-21" edge="1">
          <mxGeometry relative="1" as="geometry">
            <mxPoint x="570" y="479" as="sourcePoint" />
            <mxPoint x="470" y="509" as="targetPoint" />
            <Array as="points" />
          </mxGeometry>
        </mxCell>
        <mxCell id="m_rBV7yZO_tmM0qjdcom-90" style="edgeStyle=orthogonalEdgeStyle;rounded=0;orthogonalLoop=1;jettySize=auto;html=1;entryX=0.5;entryY=0;entryDx=0;entryDy=0;entryPerimeter=0;dashed=1;endArrow=open;endFill=0;exitX=0.25;exitY=1;exitDx=0;exitDy=0;exitPerimeter=0;" parent="QpNmT4B13l3Vr6nJiaZD-1" source="m_rBV7yZO_tmM0qjdcom-82" target="m_rBV7yZO_tmM0qjdcom-89" edge="1">
          <mxGeometry relative="1" as="geometry" />
        </mxCell>
        <mxCell id="m_rBV7yZO_tmM0qjdcom-93" style="edgeStyle=orthogonalEdgeStyle;rounded=0;orthogonalLoop=1;jettySize=auto;html=1;exitX=0.5;exitY=1;exitDx=0;exitDy=0;exitPerimeter=0;endArrow=open;endFill=0;dashed=1;" parent="QpNmT4B13l3Vr6nJiaZD-1" source="m_rBV7yZO_tmM0qjdcom-91" target="m_rBV7yZO_tmM0qjdcom-94" edge="1">
          <mxGeometry relative="1" as="geometry">
            <mxPoint x="850" y="499" as="targetPoint" />
          </mxGeometry>
        </mxCell>
        <mxCell id="m_rBV7yZO_tmM0qjdcom-103" style="edgeStyle=orthogonalEdgeStyle;rounded=0;orthogonalLoop=1;jettySize=auto;html=1;endArrow=open;endFill=0;dashed=1;" parent="QpNmT4B13l3Vr6nJiaZD-1" source="m_rBV7yZO_tmM0qjdcom-102" target="m_rBV7yZO_tmM0qjdcom-100" edge="1">
          <mxGeometry relative="1" as="geometry" />
        </mxCell>
        <mxCell id="m_rBV7yZO_tmM0qjdcom-118" style="edgeStyle=orthogonalEdgeStyle;rounded=0;orthogonalLoop=1;jettySize=auto;html=1;endArrow=open;endFill=0;dashed=1;" parent="QpNmT4B13l3Vr6nJiaZD-1" source="m_rBV7yZO_tmM0qjdcom-115" target="m_rBV7yZO_tmM0qjdcom-117" edge="1">
          <mxGeometry relative="1" as="geometry" />
        </mxCell>
        <mxCell id="m_rBV7yZO_tmM0qjdcom-129" style="edgeStyle=orthogonalEdgeStyle;rounded=0;orthogonalLoop=1;jettySize=auto;html=1;entryX=0.5;entryY=0;entryDx=0;entryDy=0;entryPerimeter=0;dashed=1;endArrow=open;endFill=0;" parent="QpNmT4B13l3Vr6nJiaZD-1" source="m_rBV7yZO_tmM0qjdcom-125" target="m_rBV7yZO_tmM0qjdcom-128" edge="1">
          <mxGeometry relative="1" as="geometry" />
        </mxCell>
        <mxCell id="m_rBV7yZO_tmM0qjdcom-169" style="edgeStyle=orthogonalEdgeStyle;rounded=0;orthogonalLoop=1;jettySize=auto;html=1;endArrow=open;endFill=0;dashed=1;" parent="QpNmT4B13l3Vr6nJiaZD-1" source="m_rBV7yZO_tmM0qjdcom-167" target="m_rBV7yZO_tmM0qjdcom-165" edge="1">
          <mxGeometry relative="1" as="geometry" />
        </mxCell>
        <mxCell id="m_rBV7yZO_tmM0qjdcom-2" value="Medical Shop&amp;nbsp;" style="swimlane;html=1;startSize=20;horizontal=0;fillColor=#f5f5f5;fontColor=#333333;strokeColor=#666666;" parent="QpNmT4B13l3Vr6nJiaZD-1" vertex="1">
          <mxGeometry x="20" y="820" width="1130" height="140" as="geometry" />
        </mxCell>
        <mxCell id="m_rBV7yZO_tmM0qjdcom-136" style="edgeStyle=orthogonalEdgeStyle;rounded=0;orthogonalLoop=1;jettySize=auto;html=1;entryX=0.504;entryY=1.018;entryDx=0;entryDy=0;entryPerimeter=0;" parent="m_rBV7yZO_tmM0qjdcom-2" source="m_rBV7yZO_tmM0qjdcom-127" target="m_rBV7yZO_tmM0qjdcom-135" edge="1">
          <mxGeometry relative="1" as="geometry">
            <mxPoint x="981" y="74" as="targetPoint" />
          </mxGeometry>
        </mxCell>
        <mxCell id="m_rBV7yZO_tmM0qjdcom-127" value="Receives the voucher against a service/invoice" style="points=[[0.25,0,0],[0.5,0,0],[0.75,0,0],[1,0.25,0],[1,0.5,0],[1,0.75,0],[0.75,1,0],[0.5,1,0],[0.25,1,0],[0,0.75,0],[0,0.5,0],[0,0.25,0]];shape=mxgraph.bpmn.task;whiteSpace=wrap;rectStyle=rounded;size=10;html=1;container=1;expand=0;collapsible=0;taskMarker=abstract;fillColor=#d5e8d4;strokeColor=#82b366;fontColor=#003300;" parent="m_rBV7yZO_tmM0qjdcom-2" vertex="1">
          <mxGeometry x="915.5" y="84" width="129" height="46" as="geometry" />
        </mxCell>
        <mxCell id="m_rBV7yZO_tmM0qjdcom-134" style="edgeStyle=orthogonalEdgeStyle;rounded=0;orthogonalLoop=1;jettySize=auto;html=1;exitX=0;exitY=0.5;exitDx=0;exitDy=0;exitPerimeter=0;" parent="m_rBV7yZO_tmM0qjdcom-2" source="m_rBV7yZO_tmM0qjdcom-128" target="m_rBV7yZO_tmM0qjdcom-127" edge="1">
          <mxGeometry relative="1" as="geometry">
            <mxPoint x="1135" y="46" as="sourcePoint" />
          </mxGeometry>
        </mxCell>
        <mxCell id="m_rBV7yZO_tmM0qjdcom-128" value="" style="points=[[0.145,0.145,0],[0.5,0,0],[0.855,0.145,0],[1,0.5,0],[0.855,0.855,0],[0.5,1,0],[0.145,0.855,0],[0,0.5,0]];shape=mxgraph.bpmn.event;html=1;verticalLabelPosition=bottom;labelBackgroundColor=#ffffff;verticalAlign=top;align=center;perimeter=ellipsePerimeter;outlineConnect=0;aspect=fixed;outline=end;symbol=message;fillColor=#fad7ac;strokeColor=#b46504;" parent="m_rBV7yZO_tmM0qjdcom-2" vertex="1">
          <mxGeometry x="1070" y="82" width="50" height="50" as="geometry" />
        </mxCell>
        <mxCell id="m_rBV7yZO_tmM0qjdcom-132" style="edgeStyle=orthogonalEdgeStyle;rounded=0;orthogonalLoop=1;jettySize=auto;html=1;entryX=0;entryY=0.5;entryDx=0;entryDy=0;entryPerimeter=0;" parent="m_rBV7yZO_tmM0qjdcom-2" source="m_rBV7yZO_tmM0qjdcom-130" target="m_rBV7yZO_tmM0qjdcom-131" edge="1">
          <mxGeometry relative="1" as="geometry">
            <mxPoint x="490" y="181" as="sourcePoint" />
            <mxPoint x="530" y="181" as="targetPoint" />
          </mxGeometry>
        </mxCell>
        <mxCell id="m_rBV7yZO_tmM0qjdcom-130" value="" style="points=[[0.145,0.145,0],[0.5,0,0],[0.855,0.145,0],[1,0.5,0],[0.855,0.855,0],[0.5,1,0],[0.145,0.855,0],[0,0.5,0]];shape=mxgraph.bpmn.event;html=1;verticalLabelPosition=bottom;labelBackgroundColor=#ffffff;verticalAlign=top;align=center;perimeter=ellipsePerimeter;outlineConnect=0;aspect=fixed;outline=standard;symbol=general;fillColor=#dae8fc;strokeColor=#6c8ebf;" parent="m_rBV7yZO_tmM0qjdcom-2" vertex="1">
          <mxGeometry x="70" y="82" width="50" height="50" as="geometry" />
        </mxCell>
        <mxCell id="m_rBV7yZO_tmM0qjdcom-133" style="edgeStyle=orthogonalEdgeStyle;rounded=0;orthogonalLoop=1;jettySize=auto;html=1;" parent="m_rBV7yZO_tmM0qjdcom-2" source="m_rBV7yZO_tmM0qjdcom-131" target="m_rBV7yZO_tmM0qjdcom-127" edge="1">
          <mxGeometry relative="1" as="geometry">
            <mxPoint x="650" y="181" as="sourcePoint" />
          </mxGeometry>
        </mxCell>
        <mxCell id="m_rBV7yZO_tmM0qjdcom-131" value="OTP Login to OpenG2P Claims Portal" style="points=[[0.25,0,0],[0.5,0,0],[0.75,0,0],[1,0.25,0],[1,0.5,0],[1,0.75,0],[0.75,1,0],[0.5,1,0],[0.25,1,0],[0,0.75,0],[0,0.5,0],[0,0.25,0]];shape=mxgraph.bpmn.task;whiteSpace=wrap;rectStyle=rounded;size=10;html=1;container=1;expand=0;collapsible=0;taskMarker=abstract;fillColor=#d5e8d4;strokeColor=#82b366;fontColor=#003300;" parent="m_rBV7yZO_tmM0qjdcom-2" vertex="1">
          <mxGeometry x="447" y="82" width="120" height="50" as="geometry" />
        </mxCell>
        <mxCell id="m_rBV7yZO_tmM0qjdcom-186" style="edgeStyle=orthogonalEdgeStyle;rounded=0;orthogonalLoop=1;jettySize=auto;html=1;" parent="m_rBV7yZO_tmM0qjdcom-2" source="m_rBV7yZO_tmM0qjdcom-182" target="m_rBV7yZO_tmM0qjdcom-185" edge="1">
          <mxGeometry relative="1" as="geometry" />
        </mxCell>
        <mxCell id="m_rBV7yZO_tmM0qjdcom-182" value="Receives the payment" style="points=[[0.25,0,0],[0.5,0,0],[0.75,0,0],[1,0.25,0],[1,0.5,0],[1,0.75,0],[0.75,1,0],[0.5,1,0],[0.25,1,0],[0,0.75,0],[0,0.5,0],[0,0.25,0]];shape=mxgraph.bpmn.task;whiteSpace=wrap;rectStyle=rounded;size=10;html=1;container=1;expand=0;collapsible=0;taskMarker=abstract;fillColor=#d5e8d4;strokeColor=#82b366;fontColor=#003300;" parent="m_rBV7yZO_tmM0qjdcom-2" vertex="1">
          <mxGeometry x="265" y="13" width="120" height="51" as="geometry" />
        </mxCell>
        <mxCell id="m_rBV7yZO_tmM0qjdcom-185" value="" style="points=[[0.145,0.145,0],[0.5,0,0],[0.855,0.145,0],[1,0.5,0],[0.855,0.855,0],[0.5,1,0],[0.145,0.855,0],[0,0.5,0]];shape=mxgraph.bpmn.event;html=1;verticalLabelPosition=bottom;labelBackgroundColor=#ffffff;verticalAlign=top;align=center;perimeter=ellipsePerimeter;outlineConnect=0;aspect=fixed;outline=end;symbol=terminate;fillColor=#dae8fc;strokeColor=#6c8ebf;" parent="m_rBV7yZO_tmM0qjdcom-2" vertex="1">
          <mxGeometry x="70" y="14" width="50" height="50" as="geometry" />
        </mxCell>
        <mxCell id="m_rBV7yZO_tmM0qjdcom-135" value="Uploads the invoice and voucher along with claim information" style="points=[[0.25,0,0],[0.5,0,0],[0.75,0,0],[1,0.25,0],[1,0.5,0],[1,0.75,0],[0.75,1,0],[0.5,1,0],[0.25,1,0],[0,0.75,0],[0,0.5,0],[0,0.25,0]];shape=mxgraph.bpmn.task;whiteSpace=wrap;rectStyle=rounded;size=10;html=1;container=1;expand=0;collapsible=0;taskMarker=abstract;fillColor=#d5e8d4;strokeColor=#82b366;fontColor=#003300;" parent="m_rBV7yZO_tmM0qjdcom-2" vertex="1">
          <mxGeometry x="917.5" y="11" width="125" height="53" as="geometry" />
        </mxCell>
        <mxCell id="m_rBV7yZO_tmM0qjdcom-183" style="edgeStyle=orthogonalEdgeStyle;rounded=0;orthogonalLoop=1;jettySize=auto;html=1;" parent="m_rBV7yZO_tmM0qjdcom-2" source="m_rBV7yZO_tmM0qjdcom-135" target="m_rBV7yZO_tmM0qjdcom-182" edge="1">
          <mxGeometry relative="1" as="geometry" />
        </mxCell>
        <mxCell id="m_rBV7yZO_tmM0qjdcom-195" style="edgeStyle=orthogonalEdgeStyle;rounded=0;orthogonalLoop=1;jettySize=auto;html=1;endArrow=open;endFill=0;dashed=1;" parent="QpNmT4B13l3Vr6nJiaZD-1" source="m_rBV7yZO_tmM0qjdcom-180" target="m_rBV7yZO_tmM0qjdcom-182" edge="1">
          <mxGeometry relative="1" as="geometry" />
        </mxCell>
        <mxCell id="m_rBV7yZO_tmM0qjdcom-138" value="" style="edgeStyle=orthogonalEdgeStyle;rounded=0;orthogonalLoop=1;jettySize=auto;html=1;endArrow=open;endFill=0;dashed=1;exitX=0.5;exitY=0;exitDx=0;exitDy=0;exitPerimeter=0;entryX=0.5;entryY=1;entryDx=0;entryDy=0;entryPerimeter=0;" parent="QpNmT4B13l3Vr6nJiaZD-1" source="m_rBV7yZO_tmM0qjdcom-135" target="m_rBV7yZO_tmM0qjdcom-137" edge="1">
          <mxGeometry relative="1" as="geometry">
            <mxPoint x="1071" y="679" as="targetPoint" />
          </mxGeometry>
        </mxCell>
        <mxCell id="xKgGMYrBiSpAheefjBe8-1" value="Scenario 2 - Process flow&amp;nbsp;" style="text;html=1;strokeColor=none;fillColor=none;align=left;verticalAlign=middle;whiteSpace=wrap;rounded=0;fontSize=22;fontStyle=1" parent="1" vertex="1">
          <mxGeometry x="26" y="18" width="260" height="30" as="geometry" />
        </mxCell>
        <mxCell id="AgpF8Hm68eTMTZU38w87-6" value="" style="shape=image;html=1;verticalAlign=top;verticalLabelPosition=bottom;labelBackgroundColor=#ffffff;imageAspect=0;aspect=fixed;image=https://cdn0.iconfinder.com/data/icons/phosphor-regular-vol-3/256/hand-palm-128.png;rotation=90;" parent="1" vertex="1">
          <mxGeometry x="970" y="138" width="14" height="14" as="geometry" />
        </mxCell>
        <mxCell id="AgpF8Hm68eTMTZU38w87-7" value="" style="shape=image;html=1;verticalAlign=top;verticalLabelPosition=bottom;labelBackgroundColor=#ffffff;imageAspect=0;aspect=fixed;image=https://cdn0.iconfinder.com/data/icons/phosphor-regular-vol-3/256/hand-palm-128.png;rotation=90;" parent="1" vertex="1">
          <mxGeometry x="88" y="226" width="14" height="14" as="geometry" />
        </mxCell>
        <mxCell id="AgpF8Hm68eTMTZU38w87-9" value="" style="shape=image;html=1;verticalAlign=top;verticalLabelPosition=bottom;labelBackgroundColor=#ffffff;imageAspect=0;aspect=fixed;image=https://cdn0.iconfinder.com/data/icons/phosphor-regular-vol-3/256/hand-palm-128.png;rotation=90;" parent="1" vertex="1">
          <mxGeometry x="978" y="305" width="14" height="14" as="geometry" />
        </mxCell>
        <mxCell id="AgpF8Hm68eTMTZU38w87-10" value="" style="shape=image;html=1;verticalAlign=top;verticalLabelPosition=bottom;labelBackgroundColor=#ffffff;imageAspect=0;aspect=fixed;image=https://cdn0.iconfinder.com/data/icons/phosphor-regular-vol-3/256/hand-palm-128.png;rotation=90;" parent="1" vertex="1">
          <mxGeometry x="962" y="962" width="14" height="14" as="geometry" />
        </mxCell>
        <mxCell id="AgpF8Hm68eTMTZU38w87-11" value="" style="shape=image;html=1;verticalAlign=top;verticalLabelPosition=bottom;labelBackgroundColor=#ffffff;imageAspect=0;aspect=fixed;image=https://cdn0.iconfinder.com/data/icons/phosphor-regular-vol-3/256/hand-palm-128.png;rotation=90;" parent="1" vertex="1">
          <mxGeometry x="315" y="890" width="14" height="14" as="geometry" />
        </mxCell>
      </root>
    </mxGraphModel>
  </diagram>
</mxfile>
